<?xml version="1.0" standalone="no"?><!DOCTYPE svg PUBLIC "-//W3C//DTD SVG 1.1//EN" "http://www.w3.org/Graphics/SVG/1.1/DTD/svg11.dtd"><svg t="1722227444326" class="icon" viewBox="0 0 1027 1024" version="1.1" xmlns="http://www.w3.org/2000/svg" p-id="11051" xmlns:xlink="http://www.w3.org/1999/xlink" width="128.375" height="128"><path d="M890.703076 472.462222c-50.062222 15.075556-558.648889 162.133333-558.648889 162.133334a232.106667 232.106667 0 0 1-244.622223-79.928889L202.916409 506.88a94.72 94.72 0 0 0 63.715555-1.706667l131.413334-32.426666L200.925298 180.337778S160.818631 117.191111 299.343076 147.911111c0 0 250.595556 191.715556 295.537777 227.555556a87.324444 87.324444 0 0 0 65.706667 0L857.138631 310.044444s134.257778-40.675556 164.977778 31.288889-81.351111 113.777778-131.413333 129.706667z m-824.888889 58.88A277.902222 277.902222 0 0 1 3.805298 440.035556s10.524444-70.257778 98.417778 0a789.333333 789.333333 0 0 0 70.257777 46.08z m0 0M637.831964 851.057778h286.435556v26.168889H637.831964z m170.666667-110.933334v-44.088888a75.093333 75.093333 0 0 1-28.444444 6.257777 79.075556 79.075556 0 0 1-28.444445-6.257777V739.555556h-56.888889a59.164444 59.164444 0 0 0-59.164444 59.164444v28.444444h288.711111v-28.444444A59.164444 59.164444 0 0 0 865.38752 739.555556z" fill="#FFC535" p-id="11052"></path><path d="M712.356409 633.742222a68.835556 68.835556 0 1 0 68.835555-68.835555 68.835556 68.835556 0 0 0-68.835555 68.835555z m0 0" fill="#FFC535" p-id="11053"></path></svg>