<?xml version="1.0" standalone="no"?><!DOCTYPE svg PUBLIC "-//W3C//DTD SVG 1.1//EN" "http://www.w3.org/Graphics/SVG/1.1/DTD/svg11.dtd"><svg t="1722226714020" class="icon" viewBox="0 0 1024 1024" version="1.1" xmlns="http://www.w3.org/2000/svg" p-id="6735" xmlns:xlink="http://www.w3.org/1999/xlink" width="128" height="128"><path d="M658.432 493.4144H370.7904c-22.272 0-40.448 18.1248-40.448 40.448v131.6352c0 22.272 18.1248 40.448 40.448 40.448h287.6416c22.272 0 40.448-18.1248 40.448-40.448v-131.6352c-0.0512-22.272-18.176-40.448-40.448-40.448z" fill="#6893DF" p-id="6736"></path><path d="M786.7392 109.6704H242.432c-73.0624 0-132.5056 59.4432-132.5056 132.5056v544.3072c0 73.0624 59.4432 132.5056 132.5056 132.5056h544.3072c73.0624 0 132.5056-59.4432 132.5056-132.5056V242.176c0-73.0624-59.4432-132.5056-132.5056-132.5056z m-26.4704 555.8272c0 56.1664-45.7216 101.888-101.888 101.888H370.7904c-56.1664 0-101.888-45.6704-101.888-101.888v-131.6352c0-52.6848 40.192-96.1024 91.4944-101.3248v-6.4512c0-85.0432 69.1712-154.2144 154.2144-154.2144s154.2144 69.1712 154.2144 154.2144v6.4512c51.3024 5.2224 91.4944 48.6912 91.4944 101.3248v131.6352z" fill="#6893DF" p-id="6737"></path><path d="M607.3344 431.9744v-5.888c0-51.1488-41.6256-92.7744-92.7744-92.7744s-92.7744 41.6256-92.7744 92.7744v5.888h185.5488z" fill="#6893DF" p-id="6738"></path></svg>