<?xml version="1.0" standalone="no"?><!DOCTYPE svg PUBLIC "-//W3C//DTD SVG 1.1//EN" "http://www.w3.org/Graphics/SVG/1.1/DTD/svg11.dtd"><svg t="1722227422286" class="icon" viewBox="0 0 1024 1024" version="1.1" xmlns="http://www.w3.org/2000/svg" p-id="10010" xmlns:xlink="http://www.w3.org/1999/xlink" width="128" height="128"><path d="M876.724706 802.093176c-70.595765 83.245176-230.580706 177.091765-331.776 215.521883-11.806118 4.216471-21.202824 6.384941-32.948706 6.384941-11.745882 0-23.552-2.168471-32.948706-4.276706-101.195294-38.430118-261.180235-132.276706-331.776-215.461647C67.282824 710.415059 60.235294 601.569882 60.235294 601.569882V104.508235c0-18.492235 36.080941-42.044235 57.645177-43.670588C115.169882 60.536471 114.085647 60.235294 120.470588 60.235294 280.455529 60.235294 446.102588 23.431529 493.206588 4.276706A77.101176 77.101176 0 0 1 512 0c4.698353 0 11.745882 2.108235 18.793412 4.276706C577.897412 23.431529 741.195294 60.235294 903.529412 60.235294c21.202824 0 60.235294 25.057882 60.235294 44.272941v494.953412s-7.047529 110.953412-87.04 202.631529zM512 70.415059C448.451765 96.015059 282.804706 120.470588 120.470588 120.470588v481.882353c2.349176 10.661647 26.804706 90.955294 85.654588 159.201883 58.789647 70.415059 207.028706 157.876706 301.176471 194.138352h9.396706c94.147765-36.261647 242.386824-123.723294 301.176471-194.138352C876.724706 693.308235 901.180235 613.014588 903.529412 602.352941V120.470588c-162.334118 0-327.981176-24.455529-391.529412-50.055529z m185.886118 578.078117H542.599529v130.168471c0 12.769882-11.806118 21.323294-23.552 21.323294h-11.745882c-14.095059 0-23.552-10.661647-23.552-21.323294v-130.168471H328.463059c-14.095059 0-23.552-10.661647-23.552-21.323294v-10.661647c0-12.769882 11.806118-21.323294 23.552-21.323294h155.286588V526.938353H328.463059c-14.095059 0-23.552-10.661647-23.552-21.323294v-10.721883c0-12.769882 11.806118-21.323294 23.552-21.323294h136.493176L330.812235 275.215059c-7.047529-8.553412-4.698353-21.383529 7.04753-27.768471l9.456941-6.384941a22.106353 22.106353 0 0 1 30.539294 6.384941L512 445.861647l134.144-198.415059c7.047529-8.553412 18.793412-12.769882 30.539294-6.384941l9.456941 4.276706c9.396706 6.384941 14.095059 17.046588 7.04753 27.708235L559.043765 471.461647h136.493176c11.745882 0 23.491765 10.661647 25.901177 23.431529v10.721883c0 12.769882-11.806118 21.323294-23.552 21.323294H542.599529v68.246588h155.286589c14.095059 0 23.552 10.661647 23.552 21.323294v10.661647c0 12.830118-11.806118 21.323294-23.552 21.323294z" fill="#00a6fc" p-id="10011"></path></svg>